<?xml version="1.0" encoding="utf-8" standalone="no"?>
<!DOCTYPE svg PUBLIC "-//W3C//DTD SVG 1.1//EN"
  "http://www.w3.org/Graphics/SVG/1.1/DTD/svg11.dtd">
<svg xmlns:xlink="http://www.w3.org/1999/xlink" width="460.8pt" height="345.6pt" viewBox="0 0 460.8 345.6" xmlns="http://www.w3.org/2000/svg" version="1.1">
 <metadata>
  <rdf:RDF xmlns:dc="http://purl.org/dc/elements/1.1/" xmlns:cc="http://creativecommons.org/ns#" xmlns:rdf="http://www.w3.org/1999/02/22-rdf-syntax-ns#">
   <cc:Work>
    <dc:type rdf:resource="http://purl.org/dc/dcmitype/StillImage"/>
    <dc:date>2025-05-01T19:00:38.851859</dc:date>
    <dc:format>image/svg+xml</dc:format>
    <dc:creator>
     <cc:Agent>
      <dc:title>Matplotlib v3.9.2, https://matplotlib.org/</dc:title>
     </cc:Agent>
    </dc:creator>
   </cc:Work>
  </rdf:RDF>
 </metadata>
 <defs>
  <style type="text/css">*{stroke-linejoin: round; stroke-linecap: butt}</style>
 </defs>
 <g id="figure_1">
  <g id="patch_1">
   <path d="M 0 345.6 
L 460.8 345.6 
L 460.8 0 
L 0 0 
z
" style="fill: #ffffff"/>
  </g>
  <g id="axes_1">
   <g id="patch_2">
    <path d="M 57.6 307.584 
L 414.72 307.584 
L 414.72 41.472 
L 57.6 41.472 
z
" style="fill: #ffffff"/>
   </g>
   <g id="matplotlib.axis_1">
    <g id="xtick_1">
     <g id="line2d_1">
      <defs>
       <path id="mdea79dfeec" d="M 0 0 
L 0 3.5 
" style="stroke: #000000; stroke-width: 0.8"/>
      </defs>
      <g>
       <use xlink:href="#mdea79dfeec" x="71.325742" y="307.584" style="stroke: #000000; stroke-width: 0.8"/>
      </g>
     </g>
     <g id="text_1">
      <!-- 100 -->
      <g transform="translate(62.23668 322.104312) scale(0.1 -0.1)">
       <defs>
        <path id="NanumGothic-31" d="M 2362 -211 
Q 2362 -301 2272 -301 
L 2010 -301 
Q 1920 -301 1920 -211 
L 1920 3949 
Q 1722 3782 1549 3635 
Q 1376 3488 1184 3322 
Q 1114 3264 1056 3334 
L 928 3488 
Q 909 3520 909 3555 
Q 909 3590 941 3616 
L 1933 4448 
Q 1958 4474 2010 4474 
L 2182 4474 
Q 2317 4474 2339 4451 
Q 2362 4429 2362 4294 
L 2362 -211 
z
" transform="scale(0.015625)"/>
        <path id="NanumGothic-30" d="M 3066 2093 
Q 3066 4102 1965 4102 
Q 864 4102 864 2093 
Q 864 77 1965 77 
Q 3066 77 3066 2093 
z
M 3526 2093 
Q 3526 -326 1965 -326 
Q 390 -326 390 2093 
Q 390 3098 698 3725 
Q 1088 4512 1965 4512 
Q 2829 4512 3226 3725 
Q 3373 3411 3449 3008 
Q 3526 2605 3526 2093 
z
" transform="scale(0.015625)"/>
       </defs>
       <use xlink:href="#NanumGothic-31"/>
       <use xlink:href="#NanumGothic-30" x="60.599991"/>
       <use xlink:href="#NanumGothic-30" x="121.199982"/>
      </g>
     </g>
    </g>
    <g id="xtick_2">
     <g id="line2d_2">
      <g>
       <use xlink:href="#mdea79dfeec" x="134.000365" y="307.584" style="stroke: #000000; stroke-width: 0.8"/>
      </g>
     </g>
     <g id="text_2">
      <!-- 200 -->
      <g transform="translate(124.911303 322.104312) scale(0.1 -0.1)">
       <defs>
        <path id="NanumGothic-32" d="M 576 -301 
Q 506 -301 470 -297 
Q 435 -294 419 -278 
Q 403 -262 400 -227 
Q 397 -192 397 -122 
L 403 19 
Q 403 102 454 154 
L 1510 1318 
Q 2688 2592 2688 3251 
Q 2688 3635 2432 3891 
Q 2182 4141 1811 4141 
Q 1293 4141 730 3853 
Q 640 3808 627 3891 
L 589 4102 
Q 570 4211 653 4237 
Q 979 4384 1241 4454 
Q 1504 4525 1779 4525 
Q 2394 4525 2758 4218 
Q 3168 3885 3168 3270 
Q 3168 3034 3053 2752 
Q 2938 2470 2733 2163 
Q 2605 1984 2371 1696 
Q 2138 1408 1837 1082 
Q 1613 838 1392 588 
Q 1171 339 947 96 
L 3187 96 
Q 3277 96 3277 6 
L 3277 -211 
Q 3277 -301 3187 -301 
L 576 -301 
z
" transform="scale(0.015625)"/>
       </defs>
       <use xlink:href="#NanumGothic-32"/>
       <use xlink:href="#NanumGothic-30" x="60.599991"/>
       <use xlink:href="#NanumGothic-30" x="121.199982"/>
      </g>
     </g>
    </g>
    <g id="xtick_3">
     <g id="line2d_3">
      <g>
       <use xlink:href="#mdea79dfeec" x="196.674988" y="307.584" style="stroke: #000000; stroke-width: 0.8"/>
      </g>
     </g>
     <g id="text_3">
      <!-- 300 -->
      <g transform="translate(187.585925 322.104312) scale(0.1 -0.1)">
       <defs>
        <path id="NanumGothic-33" d="M 493 -192 
Q 397 -166 410 -45 
L 435 205 
Q 448 282 538 243 
Q 806 134 1046 89 
Q 1286 45 1606 38 
Q 2112 32 2458 294 
Q 2861 563 2861 1082 
Q 2861 1990 1498 1990 
L 1165 1990 
Q 1082 1990 1082 2061 
L 1082 2298 
Q 1082 2381 1165 2381 
L 1197 2381 
Q 1882 2381 2266 2528 
Q 2848 2752 2848 3334 
Q 2848 3520 2749 3677 
Q 2650 3834 2483 3942 
Q 2330 4032 2138 4083 
Q 1946 4134 1734 4134 
Q 1517 4134 1254 4076 
Q 992 4019 749 3923 
Q 666 3891 653 3974 
L 627 4211 
Q 608 4301 710 4339 
Q 998 4435 1248 4480 
Q 1498 4525 1779 4525 
Q 2426 4525 2835 4250 
Q 3302 3936 3302 3334 
Q 3302 2906 2995 2592 
Q 2739 2317 2330 2189 
Q 2534 2163 2710 2080 
Q 2886 1997 3014 1850 
Q 3162 1690 3238 1488 
Q 3315 1286 3315 1043 
Q 3315 723 3184 464 
Q 3053 205 2810 19 
Q 2573 -154 2265 -253 
Q 1958 -352 1581 -346 
Q 1242 -339 995 -307 
Q 749 -275 493 -192 
z
" transform="scale(0.015625)"/>
       </defs>
       <use xlink:href="#NanumGothic-33"/>
       <use xlink:href="#NanumGothic-30" x="60.599991"/>
       <use xlink:href="#NanumGothic-30" x="121.199982"/>
      </g>
     </g>
    </g>
    <g id="xtick_4">
     <g id="line2d_4">
      <g>
       <use xlink:href="#mdea79dfeec" x="259.34961" y="307.584" style="stroke: #000000; stroke-width: 0.8"/>
      </g>
     </g>
     <g id="text_4">
      <!-- 400 -->
      <g transform="translate(250.260548 322.104312) scale(0.1 -0.1)">
       <defs>
        <path id="NanumGothic-34" d="M 2509 1216 
L 2509 4070 
Q 2035 3354 1568 2643 
Q 1101 1933 621 1216 
L 2509 1216 
z
M 2944 -211 
Q 2944 -301 2854 -301 
L 2598 -301 
Q 2509 -301 2509 -211 
L 2509 826 
L 397 826 
Q 262 826 240 848 
Q 218 870 218 1005 
L 218 1203 
Q 218 1261 224 1280 
Q 230 1299 262 1350 
L 2304 4397 
Q 2342 4454 2358 4464 
Q 2374 4474 2445 4474 
L 2765 4474 
Q 2899 4474 2921 4451 
Q 2944 4429 2944 4294 
L 2944 1216 
L 3578 1216 
Q 3667 1216 3667 1126 
L 3667 915 
Q 3667 826 3578 826 
L 2944 826 
L 2944 -211 
z
" transform="scale(0.015625)"/>
       </defs>
       <use xlink:href="#NanumGothic-34"/>
       <use xlink:href="#NanumGothic-30" x="60.599991"/>
       <use xlink:href="#NanumGothic-30" x="121.199982"/>
      </g>
     </g>
    </g>
    <g id="xtick_5">
     <g id="line2d_5">
      <g>
       <use xlink:href="#mdea79dfeec" x="322.024233" y="307.584" style="stroke: #000000; stroke-width: 0.8"/>
      </g>
     </g>
     <g id="text_5">
      <!-- 500 -->
      <g transform="translate(312.935171 322.104312) scale(0.1 -0.1)">
       <defs>
        <path id="NanumGothic-35" d="M 736 -205 
Q 646 -173 646 -90 
L 646 179 
Q 646 288 736 243 
Q 966 134 1187 89 
Q 1408 45 1670 45 
Q 2234 45 2586 320 
Q 2970 614 2970 1165 
Q 2970 2246 1734 2246 
Q 1491 2246 1296 2220 
Q 1101 2195 864 2131 
Q 794 2112 749 2147 
Q 704 2182 704 2253 
L 742 4294 
Q 742 4429 764 4451 
Q 787 4474 922 4474 
L 3110 4474 
Q 3200 4474 3200 4384 
L 3200 4173 
Q 3200 4083 3110 4083 
L 1178 4083 
Q 1171 3680 1161 3296 
Q 1152 2912 1146 2509 
Q 1459 2630 1907 2630 
Q 2579 2630 2995 2266 
Q 3411 1888 3411 1254 
Q 3411 480 2931 58 
Q 2470 -346 1670 -346 
Q 1382 -346 1171 -314 
Q 960 -282 736 -205 
z
" transform="scale(0.015625)"/>
       </defs>
       <use xlink:href="#NanumGothic-35"/>
       <use xlink:href="#NanumGothic-30" x="60.599991"/>
       <use xlink:href="#NanumGothic-30" x="121.199982"/>
      </g>
     </g>
    </g>
    <g id="xtick_6">
     <g id="line2d_6">
      <g>
       <use xlink:href="#mdea79dfeec" x="384.698856" y="307.584" style="stroke: #000000; stroke-width: 0.8"/>
      </g>
     </g>
     <g id="text_6">
      <!-- 600 -->
      <g transform="translate(375.609793 322.104312) scale(0.1 -0.1)">
       <defs>
        <path id="NanumGothic-36" d="M 3078 1203 
Q 3078 1722 2810 2022 
Q 2541 2330 2042 2330 
Q 1786 2330 1581 2250 
Q 1376 2170 1232 2029 
Q 1088 1888 1008 1689 
Q 928 1491 928 1254 
Q 928 768 1197 435 
Q 1491 45 1984 45 
Q 2490 45 2797 384 
Q 3078 704 3078 1203 
z
M 3245 4013 
Q 3098 4064 2909 4096 
Q 2720 4128 2534 4128 
Q 1664 4128 1248 3501 
Q 896 2976 883 2061 
Q 1024 2317 1293 2496 
Q 1626 2733 2042 2733 
Q 2624 2733 3021 2426 
Q 3526 2035 3526 1235 
Q 3526 557 3110 109 
Q 2688 -346 1971 -346 
Q 435 -346 435 1920 
Q 435 3104 909 3770 
Q 1466 4525 2586 4525 
Q 2752 4525 2934 4499 
Q 3117 4474 3270 4429 
Q 3366 4410 3354 4314 
L 3341 4077 
Q 3341 4032 3309 4016 
Q 3277 4000 3245 4013 
z
" transform="scale(0.015625)"/>
       </defs>
       <use xlink:href="#NanumGothic-36"/>
       <use xlink:href="#NanumGothic-30" x="60.599991"/>
       <use xlink:href="#NanumGothic-30" x="121.199982"/>
      </g>
     </g>
    </g>
    <g id="text_7">
     <!-- passengers -->
     <g transform="translate(210.720156 335.563687) scale(0.1 -0.1)">
      <defs>
       <path id="NanumGothic-70" d="M 2989 1504 
Q 2989 1766 2937 2012 
Q 2886 2259 2764 2451 
Q 2643 2643 2451 2761 
Q 2259 2880 1971 2880 
Q 1709 2880 1517 2771 
Q 1325 2662 1200 2473 
Q 1075 2285 1011 2035 
Q 947 1786 947 1504 
Q 947 762 1225 381 
Q 1504 0 1971 0 
Q 2214 0 2403 105 
Q 2592 211 2723 409 
Q 2854 608 2921 883 
Q 2989 1158 2989 1504 
z
M 518 3098 
Q 518 3187 608 3187 
L 851 3187 
Q 941 3187 941 3098 
L 909 2618 
Q 1037 2899 1341 3072 
Q 1645 3245 2048 3245 
Q 2426 3245 2691 3110 
Q 2957 2976 3126 2742 
Q 3296 2509 3376 2189 
Q 3456 1869 3456 1504 
Q 3456 1107 3363 768 
Q 3270 429 3094 179 
Q 2918 -70 2656 -214 
Q 2394 -358 2048 -358 
Q 1658 -358 1376 -208 
Q 1094 -58 947 211 
L 947 -1165 
Q 947 -1254 858 -1254 
L 614 -1254 
Q 576 -1254 547 -1228 
Q 518 -1203 518 -1165 
L 518 3098 
z
" transform="scale(0.015625)"/>
       <path id="NanumGothic-61" d="M 2566 1530 
L 2445 1530 
Q 2086 1542 1808 1500 
Q 1530 1459 1344 1389 
Q 1075 1293 940 1104 
Q 806 915 806 653 
Q 806 493 857 355 
Q 909 218 1018 141 
Q 1210 -13 1530 -13 
Q 1754 -13 1942 76 
Q 2131 166 2272 332 
Q 2413 499 2489 745 
Q 2566 992 2566 1312 
L 2566 1530 
z
M 742 2650 
Q 710 2630 681 2640 
Q 653 2650 653 2682 
L 653 2925 
Q 653 3014 742 3059 
Q 966 3181 1219 3229 
Q 1472 3277 1773 3277 
Q 2413 3277 2707 2973 
Q 3002 2669 3002 2054 
L 3002 448 
Q 3002 256 3008 105 
Q 3014 -45 3027 -186 
Q 3027 -275 2938 -275 
L 2707 -275 
Q 2618 -275 2618 -186 
L 2618 307 
Q 2483 -19 2166 -198 
Q 1850 -378 1478 -378 
Q 832 -378 531 0 
Q 429 128 377 297 
Q 326 467 326 634 
Q 326 1024 508 1305 
Q 691 1587 1069 1728 
Q 1530 1894 2483 1894 
L 2566 1894 
L 2566 2086 
Q 2566 2490 2384 2701 
Q 2202 2912 1773 2912 
Q 1485 2912 1229 2851 
Q 973 2790 742 2650 
z
" transform="scale(0.015625)"/>
       <path id="NanumGothic-73" d="M 422 147 
Q 813 -13 1229 -13 
Q 1574 -13 1798 156 
Q 2022 326 2022 614 
Q 2022 781 1897 937 
Q 1773 1094 1594 1197 
Q 1395 1306 1187 1405 
Q 979 1504 787 1613 
Q 557 1741 448 1929 
Q 339 2118 339 2323 
Q 339 2560 428 2739 
Q 518 2918 672 3040 
Q 826 3162 1030 3219 
Q 1235 3277 1466 3277 
Q 1709 3277 1888 3251 
Q 2067 3226 2246 3174 
Q 2285 3162 2313 3136 
Q 2342 3110 2336 3066 
L 2317 2874 
Q 2310 2822 2278 2809 
Q 2246 2797 2214 2810 
Q 2054 2867 1894 2889 
Q 1734 2912 1510 2912 
Q 768 2912 768 2323 
Q 768 2195 867 2080 
Q 966 1965 1203 1850 
Q 1408 1747 1606 1654 
Q 1805 1562 2035 1434 
Q 2234 1325 2365 1101 
Q 2496 877 2496 614 
Q 2496 358 2393 172 
Q 2291 -13 2118 -134 
Q 1946 -256 1722 -317 
Q 1498 -378 1261 -378 
Q 1120 -378 1008 -371 
Q 896 -365 797 -352 
Q 698 -339 595 -320 
Q 493 -301 378 -269 
Q 288 -237 294 -154 
L 320 83 
Q 333 186 422 147 
z
" transform="scale(0.015625)"/>
       <path id="NanumGothic-65" d="M 2733 1696 
Q 2733 1958 2681 2163 
Q 2630 2368 2522 2534 
Q 2285 2912 1837 2912 
Q 1376 2912 1088 2528 
Q 973 2355 896 2131 
Q 819 1907 813 1696 
L 2733 1696 
z
M 813 1331 
Q 806 1011 886 764 
Q 966 518 1120 352 
Q 1274 186 1488 96 
Q 1702 6 1965 6 
Q 2221 6 2445 54 
Q 2669 102 2861 211 
Q 2944 250 2944 166 
L 2944 -122 
Q 2944 -179 2874 -211 
Q 2662 -294 2432 -336 
Q 2202 -378 1933 -378 
Q 1146 -378 742 80 
Q 339 538 339 1459 
Q 339 2272 742 2771 
Q 1165 3277 1811 3277 
Q 2170 3277 2432 3149 
Q 2694 3021 2880 2765 
Q 3206 2310 3206 1549 
Q 3206 1466 3203 1421 
Q 3200 1376 3181 1357 
Q 3162 1338 3114 1334 
Q 3066 1331 2976 1331 
L 813 1331 
z
" transform="scale(0.015625)"/>
       <path id="NanumGothic-6e" d="M 3334 -186 
Q 3334 -275 3245 -275 
L 2989 -275 
Q 2899 -275 2899 -186 
L 2899 1830 
Q 2899 2419 2688 2665 
Q 2477 2912 2093 2912 
Q 1574 2912 1302 2624 
Q 1030 2336 1030 1818 
L 1030 -186 
Q 1030 -275 941 -275 
L 685 -275 
Q 595 -275 595 -186 
L 595 2374 
Q 595 2650 592 2803 
Q 589 2957 576 3098 
Q 570 3142 598 3164 
Q 627 3187 666 3187 
L 896 3187 
Q 986 3187 986 3098 
L 986 2746 
Q 1165 3021 1417 3149 
Q 1670 3277 2112 3277 
Q 2720 3277 3027 2925 
Q 3334 2573 3334 1933 
L 3334 -186 
z
" transform="scale(0.015625)"/>
       <path id="NanumGothic-67" d="M 2950 1472 
Q 2950 2157 2668 2528 
Q 2387 2899 1907 2899 
Q 1389 2899 1126 2553 
Q 864 2208 864 1459 
Q 864 1184 941 953 
Q 1018 723 1152 560 
Q 1286 397 1472 304 
Q 1658 211 1875 211 
Q 2099 211 2297 304 
Q 2496 397 2640 566 
Q 2784 736 2867 966 
Q 2950 1197 2950 1472 
z
M 749 -1114 
Q 672 -1094 685 -1018 
L 704 -736 
Q 704 -653 787 -698 
Q 1030 -806 1254 -854 
Q 1478 -902 1741 -902 
Q 2323 -902 2614 -547 
Q 2906 -192 2944 422 
Q 2797 134 2509 -13 
Q 2221 -160 1869 -160 
Q 1555 -160 1286 -45 
Q 1018 70 819 281 
Q 621 493 505 793 
Q 390 1094 390 1459 
Q 390 1888 470 2224 
Q 550 2560 723 2790 
Q 896 3021 1171 3142 
Q 1446 3264 1837 3264 
Q 2176 3264 2435 3152 
Q 2694 3040 2963 2752 
L 2950 3098 
Q 2950 3187 3040 3187 
L 3283 3187 
Q 3373 3187 3373 3098 
L 3373 538 
Q 3373 122 3267 -214 
Q 3162 -550 2954 -784 
Q 2746 -1018 2438 -1142 
Q 2131 -1267 1734 -1267 
Q 1446 -1267 1228 -1232 
Q 1011 -1197 749 -1114 
z
" transform="scale(0.015625)"/>
       <path id="NanumGothic-72" d="M 2221 2797 
Q 2106 2835 1914 2835 
Q 1440 2835 1210 2368 
Q 1030 2003 1030 1434 
L 1030 -186 
Q 1030 -275 941 -275 
L 691 -275 
Q 602 -275 602 -186 
L 602 2413 
Q 602 2643 598 2787 
Q 595 2931 589 3098 
Q 589 3187 678 3187 
L 915 3187 
Q 1005 3187 1005 3098 
L 1005 2470 
Q 1318 3277 1926 3277 
Q 2074 3277 2221 3238 
Q 2259 3226 2288 3197 
Q 2317 3168 2317 3117 
L 2317 2848 
Q 2317 2810 2285 2797 
Q 2253 2784 2221 2797 
z
" transform="scale(0.015625)"/>
      </defs>
      <use xlink:href="#NanumGothic-70"/>
      <use xlink:href="#NanumGothic-61" x="60.599991"/>
      <use xlink:href="#NanumGothic-73" x="115.099976"/>
      <use xlink:href="#NanumGothic-73" x="157.499969"/>
      <use xlink:href="#NanumGothic-65" x="199.899963"/>
      <use xlink:href="#NanumGothic-6e" x="254.399948"/>
      <use xlink:href="#NanumGothic-67" x="314.999939"/>
      <use xlink:href="#NanumGothic-65" x="375.59993"/>
      <use xlink:href="#NanumGothic-72" x="430.099915"/>
      <use xlink:href="#NanumGothic-73" x="466.399902"/>
     </g>
    </g>
   </g>
   <g id="matplotlib.axis_2">
    <g id="ytick_1">
     <g id="line2d_7">
      <defs>
       <path id="m67420836b4" d="M 0 0 
L -3.5 0 
" style="stroke: #000000; stroke-width: 0.8"/>
      </defs>
      <g>
       <use xlink:href="#m67420836b4" x="57.6" y="174.528" style="stroke: #000000; stroke-width: 0.8"/>
      </g>
     </g>
    </g>
   </g>
   <g id="patch_3">
    <path d="M 121.465441 68.0832 
L 121.465441 280.9728 
L 234.593134 280.9728 
L 234.593134 68.0832 
L 121.465441 68.0832 
z
" clip-path="url(#pa4104ca3cb)" style="fill: #dc831f; stroke: #4b4b4b; stroke-linejoin: miter"/>
   </g>
   <g id="line2d_8">
    <path d="M 121.465441 174.528 
L 73.832727 174.528 
" clip-path="url(#pa4104ca3cb)" style="fill: none; stroke: #4b4b4b"/>
   </g>
   <g id="line2d_9">
    <path d="M 234.593134 174.528 
L 398.487273 174.528 
" clip-path="url(#pa4104ca3cb)" style="fill: none; stroke: #4b4b4b"/>
   </g>
   <g id="line2d_10">
    <path d="M 73.832727 121.3056 
L 73.832727 227.7504 
" clip-path="url(#pa4104ca3cb)" style="fill: none; stroke: #4b4b4b; stroke-linecap: square"/>
   </g>
   <g id="line2d_11">
    <path d="M 398.487273 121.3056 
L 398.487273 227.7504 
" clip-path="url(#pa4104ca3cb)" style="fill: none; stroke: #4b4b4b; stroke-linecap: square"/>
   </g>
   <g id="line2d_12"/>
   <g id="line2d_13">
    <path d="M 175.052243 68.0832 
L 175.052243 280.9728 
" clip-path="url(#pa4104ca3cb)" style="fill: none; stroke: #4b4b4b"/>
   </g>
   <g id="line2d_14">
    <defs>
     <path id="m265ec04191" d="M 0 4 
C 1.060812 4 2.078319 3.578535 2.828427 2.828427 
C 3.578535 2.078319 4 1.060812 4 0 
C 4 -1.060812 3.578535 -2.078319 2.828427 -2.828427 
C 2.078319 -3.578535 1.060812 -4 0 -4 
C -1.060812 -4 -2.078319 -3.578535 -2.828427 -2.828427 
C -3.578535 -2.078319 -4 -1.060812 -4 0 
C -4 1.060812 -3.578535 2.078319 -2.828427 2.828427 
C -2.078319 3.578535 -1.060812 4 0 4 
z
" style="stroke: #000000"/>
    </defs>
    <g clip-path="url(#pa4104ca3cb)">
     <use xlink:href="#m265ec04191" x="184.327217" y="174.528" style="fill: #ffffff; stroke: #000000"/>
    </g>
   </g>
   <g id="patch_4">
    <path d="M 57.6 307.584 
L 57.6 41.472 
" style="fill: none; stroke: #000000; stroke-width: 0.8; stroke-linejoin: miter; stroke-linecap: square"/>
   </g>
   <g id="patch_5">
    <path d="M 414.72 307.584 
L 414.72 41.472 
" style="fill: none; stroke: #000000; stroke-width: 0.8; stroke-linejoin: miter; stroke-linecap: square"/>
   </g>
   <g id="patch_6">
    <path d="M 57.6 307.584 
L 414.72 307.584 
" style="fill: none; stroke: #000000; stroke-width: 0.8; stroke-linejoin: miter; stroke-linecap: square"/>
   </g>
   <g id="patch_7">
    <path d="M 57.6 41.472 
L 414.72 41.472 
" style="fill: none; stroke: #000000; stroke-width: 0.8; stroke-linejoin: miter; stroke-linecap: square"/>
   </g>
  </g>
 </g>
 <defs>
  <clipPath id="pa4104ca3cb">
   <rect x="57.6" y="41.472" width="357.12" height="266.112"/>
  </clipPath>
 </defs>
</svg>
